<svg width="31" height="21" viewBox="0 0 31 21" fill="none" xmlns="http://www.w3.org/2000/svg">
<path d="M14.6707 6.76448C14.8708 6.76448 15.0585 6.83118 15.1961 6.96459C15.2211 6.99794 15.2586 7.0313 15.2836 7.06465L18.5485 9.96626L21.8259 7.05353C21.8259 7.05353 21.8759 6.98683 21.9135 6.96459C22.1261 6.7756 22.4514 6.72001 22.7266 6.82007C23.0018 6.92012 23.1894 7.1647 23.1894 7.43152C23.1894 7.60939 23.1143 7.77615 22.9767 7.89844L19.6118 10.9112L22.8892 13.8128C22.8892 13.8128 22.9642 13.8573 22.9893 13.8907C23.2019 14.0797 23.2645 14.3687 23.1519 14.6133C23.0393 14.8579 22.7641 15.0246 22.4639 15.0246C22.2637 15.0246 22.0761 14.9579 21.9385 14.8356L18.561 11.8451L15.1961 14.8467H15.1836C15.121 14.8912 15.0335 14.9468 14.9459 14.9802C14.6707 15.0802 14.3455 15.0246 14.1328 14.8356C13.9952 14.7133 13.9076 14.5466 13.9076 14.3687C13.9076 14.1908 13.9827 14.0241 14.1328 13.9018C14.1703 13.8684 14.2079 13.8462 14.2579 13.8128L17.5103 10.9223L14.1328 7.92068C14.0703 7.85397 14.0077 7.77615 13.9702 7.69833C13.8576 7.45375 13.9201 7.1647 14.1328 6.97571C14.2704 6.85342 14.458 6.7756 14.6582 6.7756L14.6707 6.76448ZM23.5146 2.38427H14.2704C14.1578 2.38427 14.0577 2.38427 13.9577 2.38427C13.77 2.38427 13.5824 2.38427 13.3447 2.38427C12.9319 2.38427 12.5066 2.41762 12.1063 2.48433C11.7311 2.53991 11.3808 2.65108 11.043 2.79561C10.7178 2.94013 10.4051 3.14024 10.1424 3.37371C10.1424 3.37371 10.1174 3.39594 10.0798 3.42929C10.0048 3.496 9.99228 3.51823 9.96726 3.54047C9.84217 3.64052 9.72959 3.74058 9.61701 3.84063C9.55446 3.89622 9.49192 3.95181 9.42937 4.00739L9.20421 4.2075L6.32711 6.76448C6.32711 6.76448 6.27707 6.80895 6.26456 6.82007C6.21453 6.86454 6.15198 6.92012 6.08944 6.96459L6.01438 7.0313C6.01438 7.0313 5.97685 7.06465 5.96435 7.07577L5.91431 7.12023L5.85176 7.17582L3.27488 9.46598C3.27488 9.46598 3.17481 9.56604 3.09976 9.62162C3.09976 9.62162 3.0664 9.65127 2.99968 9.71056C2.99968 9.71056 2.89961 9.7995 2.79954 9.88844C2.6119 10.0441 2.44928 10.222 2.28666 10.3998L2.23663 10.4554C2.23663 10.4554 2.16157 10.5444 2.13655 10.5888C2.07401 10.7889 2.07401 10.989 2.13655 11.1892C2.16157 11.2336 2.1991 11.2781 2.23663 11.3226L2.28666 11.3782C2.44928 11.556 2.62441 11.7228 2.82456 11.9007C2.86208 11.934 2.89961 11.9674 2.93714 12.0118L3.13728 12.1897C3.13728 12.1897 3.22485 12.2675 3.26238 12.3009L5.85176 14.6022L6.05191 14.7689C6.05191 14.7689 6.08944 14.8023 6.10195 14.8134C6.20202 14.9023 6.23955 14.9357 6.27707 14.969C6.27707 14.969 6.30209 14.9913 6.33962 15.0246L9.21672 17.5927C9.42937 17.7817 9.51694 17.8595 9.64203 17.9707C9.79214 18.1041 9.8797 18.1819 9.97977 18.2709C10.0048 18.2931 10.0048 18.2931 10.0924 18.382C10.1174 18.4043 10.1424 18.4265 10.1549 18.4376C10.4176 18.6711 10.7178 18.8712 11.043 19.0157C11.3808 19.1714 11.7436 19.2714 12.1063 19.327C12.5191 19.3826 12.9319 19.416 13.3572 19.4271C13.5699 19.4271 13.77 19.4271 13.9702 19.4271H23.7773C23.9525 19.4271 24.1401 19.4271 24.4028 19.4271C24.8281 19.4271 25.2409 19.3937 25.6537 19.327C26.029 19.2714 26.3917 19.1603 26.7295 19.0157C27.0672 18.8601 27.3674 18.6711 27.6301 18.4376C27.8928 18.2042 28.118 17.9262 28.2931 17.6372C28.4683 17.337 28.5808 17.0146 28.6434 16.6811C28.7059 16.3142 28.7435 15.9362 28.756 15.5471C28.756 15.436 28.756 15.347 28.756 15.1358C28.756 15.0913 28.756 15.0691 28.756 15.0469V6.72001C28.756 6.72001 28.756 6.69778 28.756 6.67554C28.756 6.54214 28.756 6.48655 28.756 6.41985C28.756 6.35314 28.756 6.29755 28.756 6.23085C28.756 5.86398 28.7184 5.48599 28.6434 5.13024C28.5808 4.79672 28.4557 4.47432 28.2931 4.18527C28.118 3.8851 27.9053 3.61829 27.6427 3.38483C27.38 3.15136 27.0797 2.95125 26.7545 2.80673C26.4168 2.65108 26.054 2.55103 25.7037 2.49544C25.2909 2.43986 24.8781 2.4065 24.4528 2.39539C24.2277 2.39539 24.0275 2.39539 23.8399 2.39539C23.7398 2.39539 23.6522 2.39539 23.5272 2.39539L23.5146 2.38427ZM23.6272 0.90567H23.8274C24.0275 0.90567 24.2402 0.90567 24.4653 0.90567C24.9657 0.90567 25.4661 0.950139 25.9664 1.02796C26.5043 1.10578 27.0172 1.26142 27.5051 1.48377C27.9929 1.70611 28.4432 1.99516 28.831 2.3398C29.2188 2.68444 29.544 3.07354 29.7942 3.51823C30.0319 3.95181 30.207 4.40762 30.2946 4.88566C30.3696 5.31923 30.4197 5.76393 30.4197 6.1975C30.4197 6.2642 30.4197 6.31979 30.4197 6.39761C30.4197 6.47543 30.4197 6.53102 30.4197 6.66442C30.4197 6.70148 30.4197 6.74225 30.4197 6.78672V15.0135C30.4197 15.058 30.4197 15.1024 30.4197 15.1469C30.4197 15.3581 30.4197 15.4582 30.4197 15.5694C30.4197 16.0141 30.3696 16.4699 30.2821 16.9146C30.1945 17.3926 30.0194 17.8595 29.7692 18.2931C29.519 18.7267 29.1938 19.1269 28.806 19.4715C28.4182 19.8162 27.9679 20.1052 27.4675 20.3276C26.9797 20.5499 26.4543 20.6944 25.9164 20.7834C25.416 20.8612 24.9157 20.8946 24.4153 20.9057C24.1526 20.9057 23.9525 20.9057 23.7648 20.9057H13.9452C13.7325 20.9057 13.5199 20.9057 13.3072 20.9057C12.8068 20.9057 12.3065 20.8612 11.8061 20.7834C11.2682 20.7056 10.7553 20.5499 10.2675 20.3276C9.77963 20.1052 9.3293 19.8162 8.96653 19.4938C8.94152 19.4715 8.9165 19.4493 8.85395 19.3937C8.69133 19.2492 8.59126 19.1603 8.42864 19.0268C8.37861 18.9824 8.34108 18.949 8.29104 18.9046L8.00333 18.6489L5.15125 16.1141C5.06369 16.0363 5.01365 15.9918 4.92609 15.9251C4.87605 15.8807 4.83852 15.8473 4.78849 15.8028L4.63838 15.6694L2.04899 13.357L1.99895 13.3126L1.87386 13.1903C1.87386 13.1903 1.84884 13.168 1.82383 13.1458C1.73626 13.068 1.66121 13.0013 1.62368 12.9568C1.41103 12.7678 1.19837 12.5677 1.01073 12.3565C0.835606 12.1897 0.685497 11.9896 0.585424 11.7784L0.560405 11.7117C0.372769 11.2003 0.372769 10.6444 0.560405 10.1219L0.585424 10.0552C0.685497 9.84397 0.835606 9.64386 1.01073 9.4771C1.19837 9.26587 1.41103 9.06576 1.61117 8.88788C1.69874 8.81006 1.76128 8.74336 1.83634 8.67665L1.87386 8.6433C1.87386 8.6433 1.88637 8.63219 1.89888 8.62107C1.96143 8.56548 2.01146 8.52101 2.0615 8.47654L4.65089 6.17526L4.71343 6.11968C4.71343 6.11968 4.73845 6.09744 4.76347 6.07521C4.82602 6.01962 4.86354 5.98627 4.90107 5.95292C4.97613 5.88622 5.05118 5.81951 5.13874 5.74169L5.16376 5.71946C5.16376 5.71946 5.20129 5.6861 5.22631 5.66387L5.32638 5.57493C5.32638 5.57493 5.36391 5.54158 5.38893 5.51934L5.55154 5.37482C5.55154 5.37482 5.61409 5.31923 5.65162 5.28588L6.42718 4.59661C6.63984 4.40762 6.87751 4.19639 7.1402 3.96292L8.01584 3.18471C8.14093 3.07354 8.25351 2.97349 8.35359 2.89566L8.44115 2.81784C8.56624 2.70667 8.69133 2.60662 8.81643 2.48433C8.92901 2.38427 8.94152 2.37315 8.95403 2.35092C9.34181 2.00628 9.77963 1.71723 10.28 1.49489C10.7678 1.28366 11.2807 1.12802 11.8186 1.03908C12.3065 0.972374 12.8068 0.927905 13.2947 0.927905C13.5324 0.927905 13.745 0.927905 13.9327 0.927905C14.0077 0.927905 14.0703 0.927905 14.1453 0.927905H23.6147L23.6272 0.90567Z" fill="black"/>
</svg>
